<svg width="23" height="22" viewBox="0 0 23 22" fill="none" xmlns="http://www.w3.org/2000/svg">
<path d="M5.636 17.364C7.10845 18.8365 9.04594 19.7528 11.1183 19.9568C13.1906 20.1608 15.2696 19.6399 17.0009 18.4828C18.7322 17.3257 20.0087 15.6041 20.6129 13.6113C21.217 11.6185 21.1115 9.47782 20.3142 7.55414C19.5169 5.63045 18.0772 4.04276 16.2404 3.06164C14.4037 2.08051 12.2835 1.76667 10.2413 2.17358C8.19909 2.58049 6.36116 3.68299 5.04073 5.29318C3.7203 6.90338 2.99909 8.92163 3 11.004V13" stroke="black" stroke-width="2.5" stroke-linecap="round" stroke-linejoin="round"/>
<path d="M1 11L3 13L5 11M11 7V12H16" stroke="black" stroke-width="2.5" stroke-linecap="round" stroke-linejoin="round"/>
</svg>
